# xmcd
#
# Track frame offsets: 
#        150
#        15464
#        32518
#        51300
#        64789
#        76806
#        90067
#        102982
#        126422
#        141974
#
# Disc length: 2110 seconds
#
# Revision: 0
# Processed by: cddbd v1.5.2PL0 Copyright (c) Steve Scherf et al.
# Submitted via: ExactAudioCopy v0.99pb5
#
DISCID=77083c0a
DTITLE=Soul Track Mind - Ghost of Soul
DYEAR=2010
DGENRE=Soul
TTITLE0=I Get My Groove From You
TTITLE1=Don't Gimme That Look
TTITLE2=My Lady
TTITLE3=Little Red Heart
TTITLE4=I'm Gonna Lose Again
TTITLE5=She Left Him Behind
TTITLE6=On My Own
TTITLE7=Greater Than
TTITLE8=How I Drive
TTITLE9=Ghost Of Soul
EXTD=
EXTT0=
EXTT1=
EXTT2=
EXTT3=
EXTT4=
EXTT5=
EXTT6=
EXTT7=
EXTT8=
EXTT9=
PLAYORDER=
